<svg xmlns="http://www.w3.org/2000/svg" viewBox="0 0 512 512" width="200" height="200">
  <path fill="#0052CC" d="M384 96c0-17.7-14.3-32-32-32s-32 14.3-32 32 14.3 32 32 32 32-14.3 32-32zM160 416c0-17.7-14.3-32-32-32s-32 14.3-32 32 14.3 32 32 32 32-14.3 32-32z"/>
  <path fill="#36B37E" d="M304.5 160.5l-97 97c-9.4 9.4-9.4 24.6 0 33.9l12 12c9.4 9.4 24.6 9.4 33.9 0l97-97c9.4-9.4 9.4-24.6 0-33.9l-12-12c-9.4-9.4-24.6-9.4-33.9 0zm-97 97l-97 97c-9.4 9.4-9.4 24.6 0 33.9l12 12c9.4 9.4 24.6 9.4 33.9 0l97-97c9.4-9.4 9.4-24.6 0-33.9l-12-12c-9.4-9.4-24.6-9.4-33.9 0z"/>
  <path fill="#FFAB00" d="M416 160c-17.7 0-32 14.3-32 32s14.3 32 32 32 32-14.3 32-32-14.3-32-32-32zM96 352c-17.7 0-32 14.3-32 32s14.3 32 32 32 32-14.3 32-32-14.3-32-32-32z"/>
</svg>
