<svg xmlns="http://www.w3.org/2000/svg" viewBox="0 0 512 512" width="200" height="200">
  <path fill="#0052CC" d="M496 384H64V80c0-8.8-7.2-16-16-16S32 71.2 32 80v320c0 17.7 14.3 32 32 32h432c8.8 0 16-7.2 16-16s-7.2-16-16-16z"/>
  <path fill="#36B37E" d="M160 320c-8.8 0-16 7.2-16 16v32c0 8.8 7.2 16 16 16h32c8.8 0 16-7.2 16-16v-32c0-8.8-7.2-16-16-16h-32zm96-96c-8.8 0-16 7.2-16 16v128c0 8.8 7.2 16 16 16h32c8.8 0 16-7.2 16-16V240c0-8.8-7.2-16-16-16h-32zm96-96c-8.8 0-16 7.2-16 16v224c0 8.8 7.2 16 16 16h32c8.8 0 16-7.2 16-16V144c0-8.8-7.2-16-16-16h-32z"/>
  <path fill="#FFAB00" d="M168 224l96-96 96 64 120-144-16-16-104 128-96-64-112 112z"/>
</svg>
